HIERARCHY
ROOT hip
{
  OFFSET 0.0 0.0 0.0
  CHANNELS 6 Xposition Yposition Zposition Zrotation Yrotation Xrotation
  JOINT torso
  {
    OFFSET 0.0 0.0 0.0
    CHANNELS 3 Zrotation Xrotation Yrotation
    JOINT neck
    {
      OFFSET -31.42098999999993 328.8025209999999 74.3554680000002
      CHANNELS 3 Zrotation Xrotation Yrotation
      JOINT head
      {
        OFFSET 3.3519900000001144 303.81732099999994 206.53942900000015
        CHANNELS 3 Zrotation Xrotation Yrotation
        End Site
        {
          OFFSET 0.0 0.0 0.0
        }
      }
    }
    JOINT left_collar
    {
      OFFSET -31.42098999999993 328.8025209999999 74.3554680000002
      CHANNELS 3 Zrotation Xrotation Yrotation
      JOINT left_upper_arm
      {
        OFFSET -124.490479 -8.162841999999841 8.226441000000023
        CHANNELS 3 Zrotation Xrotation Yrotation
        JOINT left_forearm
        {
          OFFSET -253.595764 -1.5758060000000569 105.0729980000001
          CHANNELS 3 Zrotation Xrotation Yrotation
          JOINT left_hand
          {
            OFFSET -269.48803699999996 0.1478270000000066 -55.346191999999974
            CHANNELS 3 Zrotation Xrotation Yrotation
            End Site
            {
              OFFSET 0.0 0.0 0.0
            }
          }
        }
      }
    }
    JOINT right_collar
    {
      OFFSET -31.42098999999993 328.8025209999999 74.3554680000002
      CHANNELS 3 Zrotation Xrotation Yrotation
      JOINT right_upper_arm
      {
        OFFSET 162.02484099999998 0.46441600000002836 2.2303470000001653
        CHANNELS 3 Zrotation Xrotation Yrotation
        JOINT right_forearm
        {
          OFFSET 240.01246700000004 -25.835875999999985 121.34179699999959
          CHANNELS 3 Zrotation Xrotation Yrotation
          JOINT right_hand
          {
            OFFSET 252.48539699999992 18.910399999999868 -67.53466800000001
            CHANNELS 3 Zrotation Xrotation Yrotation
            End Site
            {
              OFFSET 0.0 0.0 0.0
            }
          }
        }
      }
    }
  }
}
MOTION
Frames: 19
Frame Time: 0.01
-282.79927841788714 212.81795565133118 1440.3511745923797 0.8551479490086976 2.2145192048590268 -6.0261493112594655 0.06819589767437878 -2.6840438768397723 -0.2721319454360612 -2.918842430948145 -8.345241335979727 2.182042645672057 0.0 0.0 0.0 5.335364558867526 -0.660253442823112 9.02618734023023 43.89684570821792 10.59542414536267 18.892418449881045 46.314444858749944 -6.005293960658982 -9.236447309163017 0.0 0.0 0.0 1.4210417964121635 -0.1294394369698177 7.179586880176445 -36.50388445075127 5.32939584747046 -29.61132905430452 -63.46471850590286 -9.65233252024686 15.504878910235242 0.0 0.0 0.0
-282.894325958883 212.76549999408348 1440.2931889856723 0.8365936865687363 2.211159629675038 -5.987843349938056 0.07762547087538774 -2.705100530945665 -0.27648071926201606 -2.9333579117883093 -8.362194476237518 2.1928454572929086 0.0 0.0 0.0 5.332839366494776 -0.6617998674973566 9.04026645141424 43.8973742314342 10.60119802679282 18.879250089755182 46.30399898498114 -6.009353505511363 -9.223562117677437 0.0 0.0 0.0 1.4193063556000685 -0.12975932894316153 7.209099824143559 -36.5100210912071 5.323444049206137 -29.62800624129188 -63.459971612905655 -9.64823960805728 15.511197490896945 0.0 0.0 0.0
-282.98994920556856 212.71271520002293 1440.2323768911708 0.8179254475417878 2.208308604946072 -5.950764731527736 0.08668373242256604 -2.7264250755248223 -0.280765800806614 -2.9482478884554313 -8.379638930945092 2.203930383664273 0.0 0.0 0.0 5.330685636413549 -0.663554170661215 9.056159375279254 43.897465838845875 10.606735347769487 18.866361089580288 46.293694365348834 -6.013451832401148 -9.210628586722121 0.0 0.0 0.0 1.4180078986501028 -0.13014268051621863 7.240611737435266 -36.515824738616104 5.317138273798807 -29.645285349600194 -63.455486593510244 -9.644234003484002 15.517430715809633 0.0 0.0 0.0
-283.08526700366014 212.65929011024144 1440.1674865932878 0.7991824864953517 2.205902846279707 -5.9151885667519215 0.09522386193995477 -2.7479646372108966 -0.2849454380594119 -2.963497068346075 -8.397672103961689 2.2152888359759326 0.0 0.0 0.0 5.329011906482692 -0.6655476443374506 9.074131364748908 43.89707035399434 10.611975001007929 18.853862306749985 46.28352826741447 -6.017592601089317 -9.197637417881491 0.0 0.0 0.0 1.4172612057386722 -0.1306011730258406 7.274285569528021 -36.521276364030875 5.310508993422909 -29.663088137162536 -63.4512543251554 -9.640370324124168 15.523472387989596 0.0 0.0 0.0
-283.17931463888544 212.6048963923763 1440.097151347304 0.7803913385647367 2.203859641636776 -5.881347778932724 0.10311613247254325 -2.7696552011478226 -0.28898095039141086 -2.9790853208873336 -8.416408472502814 2.2269091644467873 0.0 0.0 0.0 5.327915896485018 -0.6678068016008557 9.094405499149596 43.89614471768438 10.616856329163758 18.84186797775173 46.27349155935655 -6.021780069049928 -9.184575770232355 0.0 0.0 0.0 1.417171586773408 -0.131145236446967 7.310238287640891 -36.52635763903103 5.303594872686816 -29.681318556332897 -63.44726476867328 -9.636705759493072 15.52921113989717 0.0 0.0 0.0
-283.27104682234767 212.5492023924238 1440.0199208322617 0.7615661001393599 2.2020762042315005 -5.849423185040767 0.1102528001056777 -2.7914188300890994 -0.2928376959733573 -2.994985431148907 -8.435975730248254 2.2387749608940677 0.0 0.0 0.0 5.327480096654423 -0.6703514610995768 9.117145947907876 43.8946552868676 10.621320410060484 18.83049419220306 46.26356965734714 -6.026018394849604 -9.171429179044567 0.0 0.0 0.0 1.4178302177800015 -0.13178345705447986 7.348525081262326 -36.53105138778701 5.296443568020968 -29.699861216854178 -63.44350703290789 -9.633298903785336 15.534532665052257 0.0 0.0 0.0
-283.35934289648014 212.4918861137758 1439.9342958555333 0.7427095488124846 2.20042871319597 -5.819533783561037 0.1165520488414316 -2.813160967625728 -0.2964858186245451 -3.011160849574249 -8.456510114523796 2.2508633368812987 0.0 0.0 0.0 5.327767680863415 -0.6731928800331934 9.142441709193141 43.89257999011793 10.625311577989693 18.819856729948 46.25374354638937 -6.030311007872346 -9.158183349556412 0.0 0.0 0.0 1.4193096312851667 -0.132521993052068 7.389124369898239 -36.53534222970468 5.289112184006655 -29.718580714854326 -63.439969295472004 -9.63020811753415 15.539322799107367 0.0 0.0 0.0
-283.4430144726501 212.4326467416894 1439.8387651712644 0.7238150680753767 2.1987710646635934 -5.791727515029011 0.12196081801766552 -2.8347679757444415 -0.2999007443805998 -3.0275635853566167 -8.47815105976332 2.263143285856232 0.0 0.0 0.0 5.328818882503923 -0.6763320027436569 9.170291455806586 43.889910256332314 10.628779136828996 18.81006830948151 46.243990856792024 -6.034660074014406 -9.14482575102016 0.0 0.0 0.0 1.4216595215702108 -0.1333640161223701 7.431924323032254 -36.5392174215205 5.281667303295064 -29.73732201764707 -63.43663855542975 -9.627489430146465 15.543471420694967 0.0 0.0 0.0
-283.5208156324984 212.37121423315273 1439.7318431562521 0.7048692734877324 2.196933418361512 -5.7659727938252505 0.12645641187994056 -2.8561050842001277 -0.30306341824666017 -3.044132408606208 -8.501035349064479 2.27557425116216 0.0 0.0 0.0 5.330647954238887 -0.6797578947097914 9.200590139674915 43.886652641054106 10.631679199747929 18.80123534912423 46.23428699627485 -6.039066072781195 -9.131346975009771 0.0 0.0 0.0 1.4249030251393309 -0.13430919768527172 7.47671158115799 -36.542667916338466 5.274184538723797 -29.75591202795477 -63.43350018228064 -9.625194042658226 15.546877049144467 0.0 0.0 0.0
-283.5914557345762 212.30735660632146 1439.612107004339 0.6858551784309825 2.194720685886951 -5.742151150599481 0.13004685705257085 -2.877014947311608 -0.305960289395888 -3.06079153131129 -8.525290964467908 2.2881050261937066 0.0 0.0 0.0 5.333240825165555 -0.6834464349590286 9.23311802070897 43.88283007859946 10.633976579401185 18.793454369670542 46.224606344291566 -6.0435274896630675 -9.117741851011722 0.0 0.0 0.0 1.4290336408340865 -0.1353532605482667 7.5231628240682555 -36.54568965833583 5.266747588483736 -29.774162380431278 -63.43053722857263 -9.623365530359921 15.549451940534437 0.0 0.0 0.0
-283.65361475124155 212.24088469084512 1439.4782320700726 0.6667556944038958 2.191911162686011 -5.72005136837194 0.13277003060111944 -2.8973170077980326 -0.30858306727683954 -3.0774499261572923 -8.551030865322193 2.3006731061204606 0.0 0.0 0.0 5.336553566070532 -0.6873593417555726 9.267532778705203 43.878482691663116 10.635646648666924 18.786808178302365 46.214923507309805 -6.048040619229878 -9.104010329308984 0.0 0.0 0.0 1.4340129587427402 -0.1364876193083139 7.570839771706963 -36.548285126552635 5.2594468027036845 -29.791873459691043 -63.42772948548316 -9.622036875259651 15.551127429496525 0.0 0.0 0.0
-283.70596089785226 212.17165424644134 1439.3290240251526 0.647557237270257 2.188255552644517 -5.6993655381449475 0.13469162807311952 -2.9168078529501926 -0.31092828107435944 -3.0940014159807556 -8.57834695131622 2.313204592804148 0.0 0.0 0.0 5.340511769302736 -0.6914436051631991 9.303365325296689 43.87366809319727 10.636677089543749 18.781361981583085 46.20521461920806 -6.052599467869404 -9.090158151415833 0.0 0.0 0.0 1.4397693622745023 -0.13769913537727166 7.6191881290919 -36.55046512613587 5.25237728934922 -29.808839577931185 -63.42505227601185 -9.621227477883293 15.551859231545667 0.0 0.0 0.0
-283.7471700994326 212.099565529785 1439.1634465819066 0.6282532074149737 2.1834766688191456 -5.6796874981287555 0.1359020790997253 -2.9352627144697667 -0.312996681095132 -3.1103256298819124 -8.607304489578075 2.3256147292070515 0.0 0.0 0.0 5.345010937804988 -0.6956313952241178 9.340019856224144 43.86846111751421 10.637069443465784 18.777159587733358 46.19545866151058 -6.0571957396765725 -9.076197337718966 0.0 0.0 0.0 1.4461978439637284 -0.1389700136733343 7.667540900612841 -36.55225079478203 5.245636598935557 -29.82485520829162 -63.4224750001479 -9.620940306194749 15.551632410759616 0.0 0.0 0.0
-283.7759465912992 212.02456058584656 1438.9806436660697 0.6088471237513376 2.177270111882485 -5.660514148077908 0.1365125516311576 -2.9524382113830137 -0.31479252409791814 -3.126289882999027 -8.637937301406863 2.3378091125314007 0.0 0.0 0.0 5.349917952702324 -0.6998405066559087 9.376778583061322 43.86295292029878 10.636840370791747 18.774219874320778 46.18563878146858 -6.0618188854567085 -9.062146531301801 0.0 0.0 0.0 1.4531610306333402 -0.14027786700582756 7.715126396457024 -36.55367574241462 5.239322034082438 -29.839722129031017 -63.419959478136754 -9.62115933674698 15.550465732169098 0.0 0.0 0.0
-283.7910437222585 211.94661873350162 1438.779955070836 0.5893552114236579 2.1693062237597913 -5.641250136679838 0.1366502170452638 -2.9680763708173017 -0.31632278652764717 -3.141752002455629 -8.670244010403866 2.3496856112949045 0.0 0.0 0.0 5.355073649791293 -0.703975390841495 9.41281146978396 43.8572493944336 10.63602252446102 18.77253371027999 46.175743600093206 -6.066456194559375 -9.048031242263306 0.0 0.0 0.0 1.460491455491151 -0.141595970863261 7.761081131501525 -36.55478817909967 5.233527635475775 -29.8532572873671 -63.41745818641601 -9.621847432242687 15.548415153608207 0.0 0.0 0.0
-283.79128388205106 211.86575086537587 1438.5609248081612 0.5698082639966118 2.1592335842615857 -5.621216394092962 0.1364529770041431 -2.9819098944515634 -0.31759635101987194 -3.1565640929421295 -8.704185643071888 2.361136990963956 0.0 0.0 0.0 5.360296487734183 -0.7079288134484565 9.447191177979102 43.85146886595944 10.634664948079504 18.772061521903034 46.16576851645741 -6.071092912198651 -9.033884034839152 0.0 0.0 0.0 1.467995058387753 -0.14289372625095315 7.804467676675188 -36.55565282804086 5.2283409036015325 -29.865301142987224 -63.414912538704456 -9.622944785027851 15.545576257342264 0.0 0.0 0.0
-283.77557644087153 211.78199325405993 1438.3233016294253 0.5502526192180136 2.146684265608845 -5.599662915728564 0.13606387811854917 -2.9936685840387853 -0.31862321360856977 -3.170577207658572 -8.73968483577854 2.3720542323601133 0.0 0.0 0.0 5.36538724414885 -0.7115841607819986 9.478913294408402 43.845739067908916 10.632832927371672 18.772731671964088 46.15571701517993 -6.075712369074104 -9.019744690174152 0.0 0.0 0.0 1.475455853587624 -0.14413734203892511 7.844297371263564 -36.556352392191165 5.223839328191115 -29.875726207599982 -63.412251413335134 -9.624368040468266 15.542085466646549 0.0 0.0 0.0
-283.7429326557241 211.69540154177332 1438.0670315431819 0.5307501053058776 2.1312809899261365 -5.575786093764911 0.13562546008542253 -3.003086808743117 -0.31941376226639445 -3.18364685849538 -8.776626833580742 2.3823305027215014 0.0 0.0 0.0 5.370134638573365 -0.714818399219597 9.506921771709095 43.84019343985396 10.630607257864384 18.774439775255107 46.145601963031275 -6.080296113864599 -9.005660361674938 0.0 0.0 0.0 1.4826416785644831 -0.14529074084415192 7.879557644080472 -36.55698836240929 5.220086818508841 -29.884445459365317 -63.40939014474093 -9.626010198416255 15.538119928466374 0.0 0.0 0.0
-283.69247662934964 211.60604550796435 1437.7922425855165 0.5113768413158412 2.1126462518075173 -5.548750733984197 0.13527429120331805 -3.00991188575964 -0.3199781797351328 -3.195639258260977 -8.81486237390929 2.3918657074541123 0.0 0.0 0.0 5.374321756707821 -0.7175056681513741 9.530139343315724 43.83496685878795 10.628082935384947 18.7770490092543 46.13544684150369 -6.084824043119996 -8.991685717198203 0.0 0.0 0.0 1.489310916372974 -0.1463166826337785 7.909243511006306 -36.557681020194124 5.217130160840517 -29.891420270717887 -63.4062301672406 -9.62774137636656 15.533895963291153 0.0 0.0 0.0
